0
SECTION
2
HEADER
9
$INSUNITS
70
4
9
$ACADVER
1
AC1014
9
$HANDSEED
5
FFFF
0
ENDSEC
0
SECTION
2
TABLES
0
TABLE
2
VPORT
5
8
100
AcDbSymbolTable
0
ENDTAB
0
TABLE
2
LTYPE
5
5
100
AcDbSymbolTable
0
LTYPE
5
14
100
AcDbSymbolTableRecord
100
AcDbLinetypeTableRecord
2
BYBLOCK
70
0
0
LTYPE
5
15
100
AcDbSymbolTableRecord
100
AcDbLinetypeTableRecord
2
BYLAYER
70
0
0
ENDTAB
0
TABLE
2
LAYER
5
2
100
AcDbSymbolTable
70
2
0
LAYER
5
50
100
AcDbSymbolTableRecord
100
AcDbLayerTableRecord
2
0
70
0
6
CONTINUOUS
0
ENDTAB
0
TABLE
2
STYLE
5
3
100
AcDbSymbolTable
70
1
0
STYLE
5
11
100
AcDbSymbolTableRecord
100
AcDbTextStyleTableRecord
2
STANDARD
70
0
0
ENDTAB
0
TABLE
2
VIEW
5
6
100
AcDbSymbolTable
70
0
0
ENDTAB
0
TABLE
2
UCS
5
7
100
AcDbSymbolTable
70
0
0
ENDTAB
0
TABLE
2
APPID
5
9
100
AcDbSymbolTable
70
2
0
APPID
5
12
100
AcDbSymbolTableRecord
100
AcDbRegAppTableRecord
2
ACAD
70
0
0
ENDTAB
0
TABLE
2
DIMSTYLE
5
A
100
AcDbSymbolTable
70
1
0
ENDTAB
0
TABLE
2
BLOCK_RECORD
5
1
100
AcDbSymbolTable
70
1
0
BLOCK_RECORD
5
1F
100
AcDbSymbolTableRecord
100
AcDbBlockTableRecord
2
*MODEL_SPACE
0
BLOCK_RECORD
5
1B
100
AcDbSymbolTableRecord
100
AcDbBlockTableRecord
2
*PAPER_SPACE
0
ENDTAB
0
ENDSEC
0
SECTION
2
BLOCKS
0
BLOCK
5
20
100
AcDbEntity
100
AcDbBlockBegin
2
*MODEL_SPACE
0
ENDBLK
5
21
100
AcDbEntity
100
AcDbBlockEnd
0
BLOCK
5
1C
100
AcDbEntity
100
AcDbBlockBegin
2
*PAPER_SPACE
0
ENDBLK
5
1D
100
AcDbEntity
100
AcDbBlockEnd
0
ENDSEC
0
SECTION
2
ENTITIES
0
LWPOLYLINE
5
100
100
AcDbEntity
8
0
100
AcDbPolyline
90
8
70
1
43
0.0
10
68.912500000000009
20
-59.381250000000001
10
68.912500000000009
20
-72.38124999999998
42
-0.41421356237313145
10
68.412500000000009
20
-72.88124999999998
10
55.412500000000016
20
-72.88124999999998
42
-0.41421356237308982
10
54.912500000000009
20
-72.38124999999998
10
54.912500000000009
20
-59.381250000000001
42
-0.41421356237309503
10
55.412500000000016
20
-58.881250000000023
10
68.412500000000009
20
-58.881250000000023
42
-0.41421356237309503
0
LINE
5
101
100
AcDbEntity
8
0
100
AcDbLine
10
55.316376980435116
20
-56.113517993621613
30
0
11
57.912500000000016
21
-56.113517993621613
31
0
0
LWPOLYLINE
5
102
100
AcDbEntity
8
0
100
AcDbPolyline
90
8
70
1
43
0.0
10
76.675000000000026
20
-110.98125000000003
10
56.675000000000004
20
-110.98125000000003
42
-0.41421356237308982
10
56.175000000000004
20
-110.48125000000002
10
56.174999999999997
20
-97.481250000000017
42
-0.41421356237312101
10
56.675000000000004
20
-96.981250000000017
10
76.675000000000026
20
-96.981250000000017
42
-0.4142135623730846
10
77.175000000000026
20
-97.481250000000017
10
77.175000000000026
20
-110.48125
42
-0.41421356237296497
0
ARC
5
103
100
AcDbEntity
8
0
100
AcDbCircle
10
79.831249999999983
20
-131.96351676538677
30
0
40
0.50000000000002487
210
0
220
0
230
1
100
AcDbArc
50
-89.999999999996746
51
0
0
LINE
5
104
100
AcDbEntity
8
0
100
AcDbLine
10
52.316503048392313
20
-129.46351132299316
30
0
11
52.316376980439941
21
-59.113523369575631
31
0
0
LWPOLYLINE
5
105
100
AcDbEntity
8
0
100
AcDbPolyline
90
8
70
1
43
0.0
10
54.912500000000009
20
-78.431249999999977
42
-0.41421356237310542
10
55.412500000000016
20
-77.931250000000006
10
68.412500000000009
20
-77.931250000000006
42
-0.41421356237310542
10
68.912500000000023
20
-78.431249999999977
10
68.912499999999994
20
-91.431250000000006
42
-0.41421356237310542
10
68.412500000000009
20
-91.93125000000002
10
55.412500000000016
20
-91.93125000000002
42
-0.41421356237311585
10
54.912500000000016
20
-91.431250000000006
0
LINE
5
106
100
AcDbEntity
8
0
100
AcDbLine
10
71.437500000000014
20
-65.881249999999994
30
0
11
71.437500000000014
21
-56.613517993621599
31
0
0
LINE
5
107
100
AcDbEntity
8
0
100
AcDbLine
10
55.316490546460329
20
-132.46350594701306
30
0
11
57.912500000000016
21
-132.46351676538677
31
0
0
LINE
5
108
100
AcDbEntity
8
0
100
AcDbLine
10
58.912500000000001
20
-133.98852184827578
30
0
11
58.912500000000001
21
-133.46351676538677
31
0
0
LINE
5
109
100
AcDbEntity
8
0
100
AcDbLine
10
65.912500000000009
20
-132.46351676538677
30
0
11
79.831250000000011
21
-132.4635167653868
31
0
0
LINE
5
110
100
AcDbEntity
8
0
100
AcDbLine
10
65.912500000000009
20
-56.113517993621613
30
0
11
70.937500000000014
21
-56.113517993621613
31
0
0
ARC
5
111
100
AcDbEntity
8
0
100
AcDbCircle
10
57.912500000000016
20
-55.113517993621599
30
0
40
0.99999999999999623
210
0
220
0
230
1
100
AcDbArc
50
-28.359019082321591
51
0
0
ARC
5
112
100
AcDbEntity
8
0
100
AcDbCircle
10
57.912500000000016
20
-55.113517993621599
30
0
40
0.99999999999999645
210
0
220
0
230
1
100
AcDbArc
50
270
51
331.64098091767846
0
LINE
5
113
100
AcDbEntity
8
0
100
AcDbLine
10
64.912500000000009
20
-135.98852184827578
30
0
11
64.912500000000009
21
-133.98852184827578
31
0
0
LWPOLYLINE
5
114
100
AcDbEntity
8
0
100
AcDbPolyline
90
8
70
1
43
0.0
10
87.650000000000034
20
-96.981250000000017
42
0.41421356237313667
10
87.150000000000034
20
-97.481250000000017
10
87.150000000000063
20
-110.48125
42
0.4142135623730534
10
87.650000000000063
20
-110.98125000000003
10
107.65000000000003
20
-110.98125000000003
42
0.41421356237316787
10
108.15000000000001
20
-110.48125
10
108.15000000000005
20
-97.481250000000017
42
0.41421356237307422
10
107.65000000000001
20
-96.981250000000017
0
LWPOLYLINE
5
115
100
AcDbEntity
8
0
100
AcDbPolyline
90
8
70
1
43
0.0
10
108.91250000000002
20
-77.931249999999977
42
-0.41421356237319906
10
109.41250000000004
20
-78.431249999999977
10
109.41250000000004
20
-91.431250000000006
42
-0.41421356237313667
10
108.91250000000002
20
-91.93125000000002
10
95.912500000000023
20
-91.931250000000006
42
-0.41421356237297013
10
95.412500000000037
20
-91.431250000000006
10
95.412500000000037
20
-78.431249999999977
42
-0.41421356237312623
10
95.912500000000023
20
-77.931250000000063
0
LINE
5
116
100
AcDbEntity
8
0
100
AcDbLine
10
105.42055353996719
20
-133.98852184827578
30
0
11
105.42055353996719
21
-133.46351676538677
31
0
0
ARC
5
117
100
AcDbEntity
8
0
100
AcDbCircle
10
61.912500000000001
20
-52.588512910732575
30
0
40
3.0000000000000071
210
0
220
0
230
1
100
AcDbArc
50
0
51
180
0
ARC
5
118
100
AcDbEntity
8
0
100
AcDbCircle
10
102.42055353996719
20
-135.98852184827578
30
0
40
3.0000000000000071
210
0
220
0
230
1
100
AcDbArc
50
-180
51
0
0
LWPOLYLINE
5
119
100
AcDbEntity
8
0
100
AcDbPolyline
90
8
70
1
43
0.0
10
109.41250000000004
20
-72.381250000000023
10
109.41250000000004
20
-59.381250000000001
42
0.41421356237315227
10
108.91250000000002
20
-58.881250000000009
10
95.912500000000023
20
-58.881249999999987
42
0.41421356237302737
10
95.412500000000037
20
-59.381250000000001
10
95.412500000000037
20
-72.381250000000023
42
0.41421356237295975
10
95.912500000000023
20
-72.881250000000023
10
108.91250000000002
20
-72.88124999999998
42
0.41421356237318346
0
ARC
5
120
100
AcDbEntity
8
0
100
AcDbCircle
10
57.912500000000016
20
-133.46351676538677
30
0
40
0.99999999999999645
210
0
220
0
230
1
100
AcDbArc
50
0
51
90
0
ARC
5
121
100
AcDbEntity
8
0
100
AcDbCircle
10
55.316503048387489
20
-129.46350594703912
30
0
40
2.999999999999992
210
0
220
0
230
1
100
AcDbArc
50
180.00010267315886
51
269.99976123077931
0
LINE
5
122
100
AcDbEntity
8
0
100
AcDbLine
10
105.42055353996719
20
-133.98852184827578
30
0
11
105.42055353996719
21
-135.98852184827578
31
0
0
ARC
5
123
100
AcDbEntity
8
0
100
AcDbCircle
10
61.912500000000001
20
-135.98852184827578
30
0
40
3.0000000000000071
210
0
220
0
230
1
100
AcDbArc
50
-180
51
0
0
LINE
5
124
100
AcDbEntity
8
0
100
AcDbLine
10
84.066973304703509
20
-103.98125
30
0
11
84.066973304703509
21
-94.956250000000026
31
0
0
ARC
5
125
100
AcDbEntity
8
0
100
AcDbCircle
10
71.937500000000014
20
-93.956249999999983
30
0
40
0.50000000000002487
210
0
220
0
230
1
100
AcDbArc
50
180
51
270
0
ARC
5
126
100
AcDbEntity
8
0
100
AcDbCircle
10
106.4205535399673
20
-133.46351676538677
30
0
40
0.99999999999999645
210
0
220
-0
230
1
100
AcDbArc
50
90
51
180
0
LINE
5
127
100
AcDbEntity
8
0
100
AcDbLine
10
64.912500000000009
20
-54.045104230845382
30
0
11
64.912500000000023
21
-55.113517993621599
31
0
0
LINE
5
128
100
AcDbEntity
8
0
100
AcDbLine
10
58.912500000000001
20
-54.588512910732582
30
0
11
58.912499999999994
21
-52.588512910732575
31
0
0
ARC
5
129
100
AcDbEntity
8
0
100
AcDbCircle
10
70.937500000000014
20
-56.613517993621599
30
0
40
0.49999999999999822
210
0
220
0
230
1
100
AcDbArc
50
0
51
90
0
LINE
5
130
100
AcDbEntity
8
0
100
AcDbLine
10
58.912500000000001
20
-54.588512910732582
30
0
11
58.912500000000009
21
-55.113517993621599
31
0
0
LINE
5
131
100
AcDbEntity
8
0
100
AcDbLine
10
99.420553539967202
20
-54.045104230845382
30
0
11
99.420553539967202
21
-55.113517993621599
31
0
0
LINE
5
132
100
AcDbEntity
8
0
100
AcDbLine
10
80.331250000000054
20
-103.98125
30
0
11
80.33125000000004
21
-94.95625000000004
31
0
0
LINE
5
133
100
AcDbEntity
8
0
100
AcDbLine
10
99.420553539967202
20
-52.588512910732575
30
0
11
99.420553539967202
21
-54.588512910732582
31
0
0
ARC
5
134
100
AcDbEntity
8
0
100
AcDbCircle
10
79.831249999999983
20
-94.95625000000004
30
0
40
0.50000000000003375
210
0
220
0
230
1
100
AcDbArc
50
0
51
89.999999999996746
0
LINE
5
135
100
AcDbEntity
8
0
100
AcDbLine
10
58.912500000000001
20
-133.98852184827578
30
0
11
58.912499999999994
21
-135.98852184827578
31
0
0
LINE
5
136
100
AcDbEntity
8
0
100
AcDbLine
10
80.331250000000054
20
-103.98125
30
0
11
80.331250000000011
21
-131.96351676538677
31
0
0
LINE
5
137
100
AcDbEntity
8
0
100
AcDbLine
10
75.878102313616125
20
-94.456249999999997
30
0
11
79.831250000000011
21
-94.456249999999997
31
0
0
LINE
5
138
100
AcDbEntity
8
0
100
AcDbLine
10
71.437500000000014
20
-65.881249999999994
30
0
11
71.437499999999986
21
-93.956249999999983
31
0
0
LINE
5
139
100
AcDbEntity
8
0
100
AcDbLine
10
99.420553539967202
20
-134.531930528163
30
0
11
99.420553539967202
21
-133.46351676538677
31
0
0
LINE
5
140
100
AcDbEntity
8
0
100
AcDbLine
10
64.912500000000009
20
-134.531930528163
30
0
11
64.912500000000023
21
-133.46351676538677
31
0
0
CIRCLE
5
141
100
AcDbEntity
8
0
100
AcDbCircle
10
61.912500000000001
20
-52.588512910732575
30
0
40
1.7500000000000002
210
0
220
0
230
1
0
CIRCLE
5
142
100
AcDbEntity
8
0
100
AcDbCircle
10
61.912500000000001
20
-135.98852184827578
30
0
40
1.7500000000000002
210
0
220
0
230
1
0
ARC
5
143
100
AcDbEntity
8
0
100
AcDbCircle
10
65.912500000000009
20
-133.46351676538677
30
0
40
0.99999999999999645
210
0
220
-0
230
1
100
AcDbArc
50
90
51
180
0
LINE
5
144
100
AcDbEntity
8
0
100
AcDbLine
10
75.878102313616125
20
-94.456249999999997
30
0
11
71.937500000000014
21
-94.456250000000011
31
0
0
ARC
5
145
100
AcDbEntity
8
0
100
AcDbCircle
10
65.912500000000009
20
-55.113517993621599
30
0
40
0.99999999999999645
210
0
220
0
230
1
100
AcDbArc
50
180
51
270
0
LINE
5
146
100
AcDbEntity
8
0
100
AcDbLine
10
84.066973304703509
20
-103.98125
30
0
11
84.066973304703509
21
-131.9635167653868
31
0
0
ARC
5
147
100
AcDbEntity
8
0
100
AcDbCircle
10
92.387500000000017
20
-93.956250000000011
30
0
40
0.50000000000000711
210
0
220
0
230
1
100
AcDbArc
50
-90
51
0
0
ARC
5
148
100
AcDbEntity
8
0
100
AcDbCircle
10
55.316376980435116
20
-59.113517993621599
30
0
40
2.9999999999999982
210
0
220
-0
230
1
100
AcDbArc
50
90
51
180.00010267315886
0
ARC
5
149
100
AcDbEntity
8
0
100
AcDbCircle
10
102.42055353996719
20
-52.588512910732575
30
0
40
3.0000000000000071
210
0
220
0
230
1
100
AcDbArc
50
0
51
180
0
ARC
5
150
100
AcDbEntity
8
0
100
AcDbCircle
10
98.420553539967202
20
-133.46351676538677
30
0
40
0.99999999999997868
210
0
220
0
230
1
100
AcDbArc
50
0
51
90
0
LINE
5
151
100
AcDbEntity
8
0
100
AcDbLine
10
112.0163550029293
20
-129.46351676538677
30
0
11
112.0163550029293
21
-59.113517993621599
31
0
0
LINE
5
152
100
AcDbEntity
8
0
100
AcDbLine
10
84.566973304703481
20
-132.4635167653868
30
0
11
98.420553539967202
21
-132.4635167653868
31
0
0
LINE
5
153
100
AcDbEntity
8
0
100
AcDbLine
10
92.387500000000017
20
-94.456250000000011
30
0
11
84.566973304703481
21
-94.456249999999997
31
0
0
LINE
5
154
100
AcDbEntity
8
0
100
AcDbLine
10
98.420553539967202
20
-56.113517993621613
30
0
11
93.387500000000017
21
-56.113517993621613
31
0
0
LINE
5
155
100
AcDbEntity
8
0
100
AcDbLine
10
108.91250000000002
20
-91.93125000000002
30
0
11
95.912500000000023
21
-91.931250000000006
31
0
0
ARC
5
156
100
AcDbEntity
8
0
100
AcDbCircle
10
109.01635500292929
20
-129.46351676538677
30
0
40
3.0000000000000249
210
0
220
0
230
1
100
AcDbArc
50
-90
51
0
0
LINE
5
157
100
AcDbEntity
8
0
100
AcDbLine
10
105.42055353996719
20
-54.588512910732582
30
0
11
105.4205535399673
21
-55.113517993621599
31
0
0
LINE
5
158
100
AcDbEntity
8
0
100
AcDbLine
10
109.01635500292929
20
-56.113517993621613
30
0
11
106.4205535399673
21
-56.113517993621578
31
0
0
LINE
5
159
100
AcDbEntity
8
0
100
AcDbLine
10
92.887500000000045
20
-56.613517993621599
30
0
11
92.887500000000017
21
-93.956250000000011
31
0
0
CIRCLE
5
160
100
AcDbEntity
8
0
100
AcDbCircle
10
102.42055353996719
20
-52.588512910732575
30
0
40
1.7500000000000002
210
0
220
0
230
1
0
ARC
5
161
100
AcDbEntity
8
0
100
AcDbCircle
10
109.01635500292929
20
-59.113517993621599
30
0
40
3.0000000000000071
210
0
220
0
230
1
100
AcDbArc
50
0
51
90
0
LINE
5
162
100
AcDbEntity
8
0
100
AcDbLine
10
99.420553539967202
20
-133.46351676538677
30
0
11
99.420553539967187
21
-135.98852184827578
31
0
0
LINE
5
163
100
AcDbEntity
8
0
100
AcDbLine
10
64.912500000000009
20
-52.588512910732575
30
0
11
64.912500000000009
21
-54.588512910732582
31
0
0
ARC
5
164
100
AcDbEntity
8
0
100
AcDbCircle
10
84.566973304703481
20
-131.96351676538686
30
0
40
0.49999999999997158
210
0
220
0
230
1
100
AcDbArc
50
180
51
270
0
LINE
5
165
100
AcDbEntity
8
0
100
AcDbLine
10
105.42055353996719
20
-54.588512910732582
30
0
11
105.42055353996719
21
-52.588512910732575
31
0
0
ARC
5
166
100
AcDbEntity
8
0
100
AcDbCircle
10
98.420553539967202
20
-55.113517993621599
30
0
40
0.99999999999999645
210
0
220
0
230
1
100
AcDbArc
50
-90
51
0
0
ARC
5
167
100
AcDbEntity
8
0
100
AcDbCircle
10
93.387500000000017
20
-56.613517993621599
30
0
40
0.49999999999997158
210
0
220
-0
230
1
100
AcDbArc
50
90
51
180
0
CIRCLE
5
168
100
AcDbEntity
8
0
100
AcDbCircle
10
102.42055353996719
20
-135.98852184827578
30
0
40
1.7500000000000002
210
0
220
0
230
1
0
ARC
5
169
100
AcDbEntity
8
0
100
AcDbCircle
10
106.4205535399673
20
-55.113517993621599
30
0
40
0.99999999999997868
210
0
220
0
230
1
100
AcDbArc
50
180
51
270
0
ARC
5
170
100
AcDbEntity
8
0
100
AcDbCircle
10
84.566973304703481
20
-94.956250000000026
30
0
40
0.50000000000000711
210
0
220
-0
230
1
100
AcDbArc
50
90
51
180
0
LINE
5
171
100
AcDbEntity
8
0
100
AcDbLine
10
106.4205535399673
20
-132.46351676538677
30
0
11
109.01635500292929
21
-132.4635167653868
31
0
0
ENDSEC
0
SECTION
2
OBJECTS
0
DICTIONARY
5
C
100
AcDbDictionary
3
ACAD_GROUP
350
D
3
ACAD_MLINESTYLE
350
17
0
DICTIONARY
5
D
100
AcDbDictionary
0
DICTIONARY
5
1A
330
C
100
AcDbDictionary
0
DICTIONARY
5
17
100
AcDbDictionary
0
ENDSEC
0
EOF
