0
SECTION
2
HEADER
9
$INSUNITS
70
4
9
$ACADVER
1
AC1014
9
$HANDSEED
5
FFFF
0
ENDSEC
0
SECTION
2
TABLES
0
TABLE
2
VPORT
5
8
100
AcDbSymbolTable
0
ENDTAB
0
TABLE
2
LTYPE
5
5
100
AcDbSymbolTable
0
LTYPE
5
14
100
AcDbSymbolTableRecord
100
AcDbLinetypeTableRecord
2
BYBLOCK
70
0
0
LTYPE
5
15
100
AcDbSymbolTableRecord
100
AcDbLinetypeTableRecord
2
BYLAYER
70
0
0
ENDTAB
0
TABLE
2
LAYER
5
2
100
AcDbSymbolTable
70
2
0
LAYER
5
50
100
AcDbSymbolTableRecord
100
AcDbLayerTableRecord
2
0
70
0
6
CONTINUOUS
0
ENDTAB
0
TABLE
2
STYLE
5
3
100
AcDbSymbolTable
70
1
0
STYLE
5
11
100
AcDbSymbolTableRecord
100
AcDbTextStyleTableRecord
2
STANDARD
70
0
0
ENDTAB
0
TABLE
2
VIEW
5
6
100
AcDbSymbolTable
70
0
0
ENDTAB
0
TABLE
2
UCS
5
7
100
AcDbSymbolTable
70
0
0
ENDTAB
0
TABLE
2
APPID
5
9
100
AcDbSymbolTable
70
2
0
APPID
5
12
100
AcDbSymbolTableRecord
100
AcDbRegAppTableRecord
2
ACAD
70
0
0
ENDTAB
0
TABLE
2
DIMSTYLE
5
A
100
AcDbSymbolTable
70
1
0
ENDTAB
0
TABLE
2
BLOCK_RECORD
5
1
100
AcDbSymbolTable
70
1
0
BLOCK_RECORD
5
1F
100
AcDbSymbolTableRecord
100
AcDbBlockTableRecord
2
*MODEL_SPACE
0
BLOCK_RECORD
5
1B
100
AcDbSymbolTableRecord
100
AcDbBlockTableRecord
2
*PAPER_SPACE
0
ENDTAB
0
ENDSEC
0
SECTION
2
BLOCKS
0
BLOCK
5
20
100
AcDbEntity
100
AcDbBlockBegin
2
*MODEL_SPACE
0
ENDBLK
5
21
100
AcDbEntity
100
AcDbBlockEnd
0
BLOCK
5
1C
100
AcDbEntity
100
AcDbBlockBegin
2
*PAPER_SPACE
0
ENDBLK
5
1D
100
AcDbEntity
100
AcDbBlockEnd
0
ENDSEC
0
SECTION
2
ENTITIES
0
LWPOLYLINE
5
100
100
AcDbEntity
8
0
100
AcDbPolyline
90
8
70
1
43
0.0
10
207.31250000000003
20
-72.38124999999998
10
207.31250000000003
20
-59.381250000000001
42
-0.41421356237313667
10
207.81250000000003
20
-58.881250000000009
10
220.8125
20
-58.881250000000009
42
-0.41421356237313667
10
221.3125
20
-59.381250000000001
10
221.3125
20
-72.38124999999998
42
-0.41421356237314183
10
220.8125
20
-72.88124999999998
10
207.81250000000003
20
-72.88124999999998
42
-0.41421356237314183
0
LWPOLYLINE
5
101
100
AcDbEntity
8
0
100
AcDbPolyline
90
8
70
1
43
0.0
10
169.71250000000001
20
-91.931250000000006
42
-0.41421356237313667
10
169.21250000000001
20
-91.431250000000006
10
169.21250000000001
20
-78.43125000000002
42
-0.41421356237314183
10
169.71250000000001
20
-77.931250000000006
10
182.71250000000003
20
-77.93125000000002
42
-0.4142135623730222
10
183.21249999999998
20
-78.43125000000002
10
183.21250000000003
20
-91.431250000000006
42
-0.4142135623730534
10
182.71250000000003
20
-91.931250000000006
0
LWPOLYLINE
5
102
100
AcDbEntity
8
0
100
AcDbPolyline
90
8
70
1
43
0.0
10
169.21250000000001
20
-59.381250000000001
42
-0.41421356237313667
10
169.71250000000001
20
-58.881249999999994
10
182.71250000000003
20
-58.881250000000009
42
-0.4142135623730222
10
183.21250000000003
20
-59.381250000000001
10
183.21250000000003
20
-72.38124999999998
42
-0.41421356237316265
10
182.71250000000003
20
-72.88124999999998
10
169.71250000000001
20
-72.88124999999998
42
-0.41421356237314183
10
169.21250000000001
20
-72.38124999999998
0
LWPOLYLINE
5
103
100
AcDbEntity
8
0
100
AcDbPolyline
90
8
70
1
43
0.0
10
188.76249999999999
20
-58.881250000000009
10
201.76249999999999
20
-58.881250000000009
42
-0.41421356237313667
10
202.26249999999999
20
-59.381250000000001
10
202.26249999999999
20
-72.38124999999998
42
-0.41421356237314183
10
201.76249999999999
20
-72.88124999999998
10
188.76249999999999
20
-72.88124999999998
42
-0.4142135623730222
10
188.26249999999999
20
-72.38124999999998
10
188.26249999999999
20
-59.381250000000001
42
-0.41421356237315748
0
LWPOLYLINE
5
104
100
AcDbEntity
8
0
100
AcDbPolyline
90
8
70
1
43
0.0
10
221.3125
20
-78.431249999999977
10
221.3125
20
-91.431250000000006
42
-0.41421356237313667
10
220.8125
20
-91.93125000000002
10
207.81250000000003
20
-91.93125000000002
42
-0.41421356237321988
10
207.31250000000003
20
-91.431250000000006
10
207.31250000000003
20
-78.431249999999977
42
-0.41421356237310542
10
207.8125
20
-77.931249999999991
10
220.8125
20
-77.931250000000006
42
-0.41421356237318868
0
LWPOLYLINE
5
105
100
AcDbEntity
8
0
100
AcDbPolyline
90
8
70
1
43
0.0
10
202.26249999999999
20
-91.431250000000006
42
-0.41421356237313667
10
201.76249999999999
20
-91.93125000000002
10
188.76249999999999
20
-91.93125000000002
42
-0.41421356237313667
10
188.26249999999999
20
-91.431250000000006
10
188.26249999999999
20
-78.431249999999977
42
-0.41421356237315227
10
188.76249999999999
20
-77.931250000000006
10
201.76249999999999
20
-77.931250000000006
42
-0.41421356237318868
10
202.26249999999999
20
-78.431249999999977
0
LWPOLYLINE
5
106
100
AcDbEntity
8
0
100
AcDbPolyline
90
8
70
1
43
0.0
10
150.16250000000008
20
-78.43125000000002
42
-0.414213562373069
10
150.66250000000002
20
-77.93125000000002
10
163.66249999999997
20
-77.93125000000002
42
-0.41421356237314183
10
164.16249999999997
20
-78.43125000000002
10
164.16249999999997
20
-91.431250000000006
42
-0.41421356237304302
10
163.66249999999997
20
-91.931250000000006
10
150.66250000000005
20
-91.931250000000006
42
-0.41421356237307422
10
150.16250000000008
20
-91.431250000000006
0
LWPOLYLINE
5
107
100
AcDbEntity
8
0
100
AcDbPolyline
90
8
70
1
43
0.0
10
192.23750000000001
20
-96.981250000000017
42
-0.41421356237313667
10
192.73750000000004
20
-97.481250000000017
10
192.73750000000004
20
-110.48125
42
-0.41421356237313667
10
192.23750000000001
20
-110.98125000000002
10
179.23750000000001
20
-110.98125000000002
42
-0.4142135623732407
10
178.73750000000001
20
-110.48125
10
178.73750000000001
20
-97.481250000000017
42
-0.41421356237313667
10
179.23750000000001
20
-96.981250000000017
0
LWPOLYLINE
5
108
100
AcDbEntity
8
0
100
AcDbPolyline
90
8
70
1
43
0.0
10
145.11250000000001
20
-59.381250000000001
10
145.11250000000001
20
-72.38124999999998
42
-0.41421356237309503
10
144.61250000000001
20
-72.881249999999994
10
131.61250000000001
20
-72.88124999999998
42
-0.41421356237311585
10
131.11250000000001
20
-72.38124999999998
10
131.11250000000001
20
-59.381250000000001
42
-0.41421356237310542
10
131.61250000000001
20
-58.881250000000016
10
144.61250000000001
20
-58.881250000000016
42
-0.4142135623730846
0
LWPOLYLINE
5
109
100
AcDbEntity
8
0
100
AcDbPolyline
90
8
70
1
43
0.0
10
150.66250000000005
20
-72.88124999999998
42
-0.41421356237312623
10
150.16250000000008
20
-72.38124999999998
10
150.16250000000008
20
-59.381250000000001
42
-0.41421356237308982
10
150.66250000000002
20
-58.881250000000009
10
163.66249999999997
20
-58.881250000000009
42
-0.41421356237313667
10
164.16249999999997
20
-59.381250000000001
10
164.16249999999997
20
-72.38124999999998
42
-0.41421356237314183
10
163.66249999999997
20
-72.881249999999994
0
LWPOLYLINE
5
110
100
AcDbEntity
8
0
100
AcDbPolyline
90
8
70
1
43
0.0
10
173.68750000000003
20
-97.481250000000017
10
173.68750000000003
20
-110.48125
42
-0.4142135623730846
10
173.18749999999997
20
-110.98125000000002
10
160.1875
20
-110.98125000000002
42
-0.4142135623730846
10
159.68749999999997
20
-110.48125
10
159.6875
20
-97.481250000000017
42
-0.41421356237309503
10
160.1875
20
-96.981250000000017
10
173.18749999999997
20
-96.981250000000017
42
-0.41421356237315748
0
LWPOLYLINE
5
111
100
AcDbEntity
8
0
100
AcDbPolyline
90
8
70
1
43
0.0
10
145.11250000000001
20
-91.431250000000006
42
-0.41421356237307422
10
144.61250000000001
20
-91.93125000000002
10
131.61250000000001
20
-91.93125000000002
42
-0.41421356237309503
10
131.11250000000001
20
-91.431250000000006
10
131.11250000000001
20
-78.431249999999977
42
-0.41421356237309503
10
131.61250000000001
20
-77.931250000000006
10
144.61250000000001
20
-77.931250000000006
42
-0.41421356237309503
10
145.11250000000001
20
-78.431249999999977
0
LWPOLYLINE
5
112
100
AcDbEntity
8
0
100
AcDbPolyline
90
8
70
1
43
0.0
10
73.96250000000002
20
-78.431249999999977
42
-0.41421356237310542
10
74.462500000000034
20
-77.931250000000006
10
87.46250000000002
20
-77.931250000000006
42
-0.41421356237312623
10
87.962500000000006
20
-78.431249999999977
10
87.962500000000006
20
-91.431250000000006
42
-0.41421356237310542
10
87.46250000000002
20
-91.93125000000002
10
74.462500000000034
20
-91.93125000000002
42
-0.41421356237308982
10
73.962500000000034
20
-91.431250000000006
0
LWPOLYLINE
5
113
100
AcDbEntity
8
0
100
AcDbPolyline
90
8
70
1
43
0.0
10
68.412500000000009
20
-58.881250000000009
42
-0.41421356237309503
10
68.912500000000009
20
-59.381250000000001
10
68.912500000000009
20
-72.38124999999998
42
-0.41421356237313145
10
68.412500000000009
20
-72.881249999999994
10
55.412500000000009
20
-72.88124999999998
42
-0.41421356237309503
10
54.912500000000009
20
-72.38124999999998
10
54.912500000000009
20
-59.381250000000001
42
-0.41421356237309503
10
55.412500000000009
20
-58.881250000000009
0
LWPOLYLINE
5
114
100
AcDbEntity
8
0
100
AcDbPolyline
90
8
70
1
43
0.0
10
68.412500000000009
20
-77.931250000000006
42
-0.4142135623730846
10
68.912500000000023
20
-78.431249999999977
10
68.912499999999994
20
-91.431250000000006
42
-0.41421356237310542
10
68.412500000000009
20
-91.93125000000002
10
55.412500000000009
20
-91.93125000000002
42
-0.41421356237308982
10
54.912500000000009
20
-91.431250000000006
10
54.912500000000009
20
-78.431249999999977
42
-0.41421356237312101
10
55.412500000000009
20
-77.931250000000006
0
LWPOLYLINE
5
115
100
AcDbEntity
8
0
100
AcDbPolyline
90
8
70
1
43
0.0
10
83.487499999999983
20
-110.48125
10
83.487499999999983
20
-97.481250000000017
42
-0.41421356237310542
10
83.987499999999983
20
-96.981250000000017
10
96.987500000000011
20
-96.981250000000017
42
-0.41421356237309503
10
97.487500000000011
20
-97.481250000000017
10
97.487500000000011
20
-110.48125
42
-0.41421356237307422
10
96.987500000000011
20
-110.98125000000002
10
83.987499999999983
20
-110.98125000000002
42
-0.4142135623730846
0
LWPOLYLINE
5
116
100
AcDbEntity
8
0
100
AcDbPolyline
90
8
70
1
43
0.0
10
107.01250000000002
20
-91.431250000000006
42
-0.4142135623730534
10
106.51250000000003
20
-91.931250000000006
10
93.512500000000003
20
-91.931250000000006
42
-0.4142135623730534
10
93.012500000000017
20
-91.431250000000006
10
93.012500000000017
20
-78.43125000000002
42
-0.41421356237312101
10
93.512500000000003
20
-77.93125000000002
10
106.51250000000003
20
-77.93125000000002
42
-0.41421356237310542
10
107.01250000000002
20
-78.43125000000002
0
LWPOLYLINE
5
117
100
AcDbEntity
8
0
100
AcDbPolyline
90
8
70
1
43
0.0
10
93.512500000000003
20
-58.881250000000016
10
106.51250000000003
20
-58.881250000000016
42
-0.41421356237311585
10
107.01250000000002
20
-59.381250000000001
10
107.01250000000002
20
-72.38124999999998
42
-0.41421356237310542
10
106.51250000000003
20
-72.88124999999998
10
93.512500000000003
20
-72.88124999999998
42
-0.41421356237312101
10
93.012500000000017
20
-72.38124999999998
10
93.012500000000017
20
-59.381250000000001
42
-0.41421356237313145
0
LWPOLYLINE
5
118
100
AcDbEntity
8
0
100
AcDbPolyline
90
8
70
1
43
0.0
10
73.96250000000002
20
-59.381250000000001
10
73.96250000000002
20
-72.38124999999998
42
0.41421356237313145
10
74.462500000000034
20
-72.88124999999998
10
87.46250000000002
20
-72.88124999999998
42
0.41421356237312623
10
87.962500000000006
20
-72.38124999999998
10
87.962500000000006
20
-59.381250000000001
42
0.4142135623730846
10
87.46250000000002
20
-58.881249999999994
10
74.462500000000034
20
-58.881250000000009
42
0.41421356237307944
0
LWPOLYLINE
5
119
100
AcDbEntity
8
0
100
AcDbPolyline
90
8
70
1
43
0.0
10
121.58750000000001
20
-110.48125
10
121.58750000000001
20
-97.481250000000017
42
-0.41421356237309503
10
122.08750000000002
20
-96.981250000000017
10
135.08749999999998
20
-96.981250000000017
42
-0.41421356237311585
10
135.58750000000001
20
-97.481250000000017
10
135.58750000000001
20
-110.48125
42
-0.41421356237306384
10
135.08749999999998
20
-110.98125000000002
10
122.08750000000002
20
-110.98125000000002
42
-0.41421356237307422
0
LWPOLYLINE
5
120
100
AcDbEntity
8
0
100
AcDbPolyline
90
8
70
1
43
0.0
10
126.06250000000001
20
-72.38124999999998
42
-0.41421356237309503
10
125.5625
20
-72.881249999999994
10
112.56250000000001
20
-72.88124999999998
42
-0.41421356237311585
10
112.0625
20
-72.38124999999998
10
112.0625
20
-59.381250000000001
42
-0.41421356237310542
10
112.56250000000001
20
-58.881250000000016
10
125.5625
20
-58.881250000000016
42
-0.4142135623730846
10
126.06250000000001
20
-59.381250000000001
0
LWPOLYLINE
5
121
100
AcDbEntity
8
0
100
AcDbPolyline
90
8
70
1
43
0.0
10
112.56250000000001
20
-77.931250000000006
10
125.5625
20
-77.931250000000006
42
-0.41421356237309503
10
126.06250000000001
20
-78.431249999999977
10
126.06250000000001
20
-91.431250000000006
42
-0.41421356237307422
10
125.5625
20
-91.93125000000002
10
112.56250000000001
20
-91.93125000000002
42
-0.41421356237309503
10
112.0625
20
-91.431250000000006
10
112.0625
20
-78.431249999999977
42
-0.41421356237309503
0
LWPOLYLINE
5
122
100
AcDbEntity
8
0
100
AcDbPolyline
90
8
70
1
43
0.0
10
154.13749999999999
20
-110.98125000000002
10
141.13749999999999
20
-110.98125000000002
42
-0.41421356237307422
10
140.63749999999999
20
-110.48125
10
140.63749999999999
20
-97.481250000000017
42
-0.41421356237309503
10
141.13749999999999
20
-96.981250000000017
10
154.13749999999999
20
-96.981250000000017
42
-0.41421356237309503
10
154.63750000000005
20
-97.481250000000017
10
154.63750000000005
20
-110.48125
42
-0.41421356237309503
0
LWPOLYLINE
5
123
100
AcDbEntity
8
0
100
AcDbPolyline
90
8
70
1
43
0.0
10
103.03750000000001
20
-96.981250000000017
10
116.03749999999998
20
-96.981250000000017
42
-0.41421356237311585
10
116.53750000000002
20
-97.481250000000017
10
116.53750000000001
20
-110.48125
42
-0.41421356237306384
10
116.03749999999998
20
-110.98125000000002
10
103.03750000000001
20
-110.98125000000002
42
-0.41421356237307422
10
102.53749999999999
20
-110.48125
10
102.53749999999999
20
-97.481250000000017
42
-0.41421356237309503
0
LWPOLYLINE
5
124
100
AcDbEntity
8
0
100
AcDbPolyline
90
8
70
1
43
0.0
10
226.36250000000004
20
-59.381250000000001
42
-0.41421356237313667
10
226.86250000000004
20
-58.881249999999994
10
239.86250000000001
20
-58.881250000000009
42
-0.41421356237313667
10
240.36250000000001
20
-59.381250000000001
10
240.36250000000001
20
-72.38124999999998
42
-0.41421356237314183
10
239.86250000000001
20
-72.881249999999994
10
226.86250000000004
20
-72.88124999999998
42
-0.41421356237314183
10
226.36250000000004
20
-72.38124999999998
0
LWPOLYLINE
5
125
100
AcDbEntity
8
0
100
AcDbPolyline
90
8
70
1
43
0.0
10
237.15000000000003
20
-97.481250000000017
42
-0.41421356237313667
10
237.65000000000003
20
-96.981250000000017
10
257.64999999999998
20
-96.981250000000017
42
-0.4142135623730846
10
258.14999999999998
20
-97.481250000000017
10
258.14999999999998
20
-110.48125
42
-0.41421356237304302
10
257.64999999999998
20
-110.98125000000003
10
237.65000000000003
20
-110.98125000000003
42
-0.41421356237313667
10
237.15000000000003
20
-110.48125
0
LWPOLYLINE
5
126
100
AcDbEntity
8
0
100
AcDbPolyline
90
8
70
1
43
0.0
10
259.41250000000002
20
-78.431249999999977
10
259.41250000000002
20
-91.431250000000006
42
-0.41421356237313667
10
258.91250000000002
20
-91.93125000000002
10
245.91250000000002
20
-91.931250000000006
42
-0.41421356237311585
10
245.41250000000005
20
-91.431250000000006
10
245.41250000000002
20
-78.431249999999977
42
-0.41421356237315227
10
245.91250000000002
20
-77.93125000000002
10
258.91250000000002
20
-77.931249999999977
42
-0.41421356237313667
0
LWPOLYLINE
5
127
100
AcDbEntity
8
0
100
AcDbPolyline
90
8
70
1
43
0.0
10
226.86250000000004
20
-91.93125000000002
42
-0.41421356237321988
10
226.36250000000004
20
-91.431250000000006
10
226.36250000000004
20
-78.431249999999977
42
-0.41421356237312623
10
226.86250000000004
20
-77.931250000000006
10
239.86250000000001
20
-77.931250000000006
42
-0.41421356237318868
10
240.36250000000001
20
-78.431249999999977
10
240.36250000000001
20
-91.431250000000006
42
-0.41421356237313667
10
239.86250000000001
20
-91.93125000000002
0
LWPOLYLINE
5
128
100
AcDbEntity
8
0
100
AcDbPolyline
90
8
70
1
43
0.0
10
230.83750000000006
20
-97.481250000000017
10
230.83750000000006
20
-110.48125
42
-0.41421356237306384
10
230.33750000000003
20
-110.98125000000003
10
217.33750000000003
20
-110.98125000000002
42
-0.4142135623732407
10
216.83750000000006
20
-110.48125
10
216.83750000000003
20
-97.481250000000017
42
-0.41421356237313667
10
217.33750000000003
20
-96.981250000000017
10
230.33750000000001
20
-96.981250000000017
42
-0.41421356237315748
0
LWPOLYLINE
5
129
100
AcDbEntity
8
0
100
AcDbPolyline
90
8
70
1
43
0.0
10
211.28749999999999
20
-96.981250000000017
42
-0.41421356237314705
10
211.78750000000002
20
-97.481250000000017
10
211.78750000000002
20
-110.48125
42
-0.41421356237307422
10
211.28749999999999
20
-110.98125000000003
10
198.28749999999999
20
-110.98125000000003
42
-0.41421356237304302
10
197.78750000000002
20
-110.48125
10
197.78750000000002
20
-97.481250000000017
42
-0.4142135623730846
10
198.28749999999999
20
-96.981250000000017
0
LWPOLYLINE
5
130
100
AcDbEntity
8
0
100
AcDbPolyline
90
8
70
1
43
0.0
10
258.91250000000002
20
-72.88124999999998
10
245.91250000000002
20
-72.881250000000023
42
-0.41421356237310542
10
245.41249999999997
20
-72.38124999999998
10
245.41250000000002
20
-59.381250000000001
42
-0.41421356237315227
10
245.91250000000002
20
-58.881250000000023
10
258.91250000000002
20
-58.881249999999987
42
-0.41421356237315227
10
259.41250000000002
20
-59.381250000000001
10
259.41250000000002
20
-72.38124999999998
42
-0.41421356237314183
0
LWPOLYLINE
5
131
100
AcDbEntity
8
0
100
AcDbPolyline
90
8
70
1
43
0.0
10
56.675000000000004
20
-110.98125000000002
42
-0.414213562373069
10
56.17499999999999
20
-110.48125000000002
10
56.174999999999997
20
-97.481250000000017
42
-0.41421356237312101
10
56.675000000000004
20
-96.981250000000017
10
76.675000000000026
20
-96.981250000000017
42
-0.41421356237308982
10
77.175000000000026
20
-97.481250000000017
10
77.175000000000026
20
-110.48125
42
-0.414213562373069
10
76.675000000000026
20
-110.98125000000002
0
LWPOLYLINE
5
132
100
AcDbEntity
8
0
100
AcDbPolyline
90
64
70
1
43
0.0
10
134.11249999999998
20
-116.03125000000006
42
0.41421356237310542
10
134.61250000000001
20
-115.53125000000007
10
134.61250000000001
20
-114.53125000000006
42
-0.4142135623730534
10
135.11249999999998
20
-114.03125000000006
10
153.05049999999997
20
-114.03125000000004
42
-0.41421356237314705
10
153.5505
20
-114.53125000000006
10
153.5505
20
-115.53125000000007
42
0.41421356237316787
10
154.0505
20
-116.03125000000006
10
160.27450000000005
20
-116.03125000000006
42
0.41421356237304302
10
160.77449999999999
20
-115.53125000000006
10
160.77449999999999
20
-114.53125000000006
42
-0.41421356237309503
10
161.27449999999999
20
-114.03125000000004
10
169.6875
20
-114.03125000000004
42
-0.4142135623730846
10
170.1875
20
-114.53125000000006
10
170.1875
20
-115.53125000000001
42
0.4142135623730534
10
170.68749999999997
20
-116.03125000000006
10
172.21250000000001
20
-116.03125000000006
42
0.41421356237311585
10
172.71249999999995
20
-115.53125000000001
10
172.71249999999995
20
-114.53125000000006
42
-0.41421356237309503
10
173.21250000000003
20
-114.03125000000004
10
179.21250000000003
20
-114.03125000000004
42
-0.41421356237309503
10
179.71250000000003
20
-114.53125000000006
10
179.71250000000001
20
-115.53125000000001
42
0.4142135623730846
10
180.21250000000006
20
-116.03125000000006
10
184.15050000000005
20
-116.03125000000006
42
0.4142135623730846
10
184.65050000000005
20
-115.53125000000001
10
184.65050000000002
20
-114.53125000000006
42
-0.41421356237304302
10
185.15049999999997
20
-114.03125000000006
10
193.53174999999999
20
-114.03125000000004
42
-0.41421356237301177
10
194.03175000000002
20
-114.53125000000006
10
194.03175000000002
20
-115.53125000000007
42
0.41421356237311585
10
194.53175000000005
20
-116.03125000000007
10
200.78749999999999
20
-116.03125000000006
42
0.41421356237304302
10
201.28749999999999
20
-115.53125000000007
10
201.28749999999999
20
-114.53125000000006
42
-0.4142135623730846
10
201.78750000000002
20
-114.03125000000004
10
207.78750000000002
20
-114.03125000000004
42
-0.41421356237307422
10
208.28749999999999
20
-114.53125000000006
10
208.28749999999999
20
-115.53125000000007
42
0.41421356237307422
10
208.78749999999999
20
-116.03125000000004
10
230.33750000000001
20
-116.03125000000006
42
-0.41421356237321988
10
230.83750000000003
20
-116.53125000000004
10
230.83750000000003
20
-129.53125000000003
42
-0.41421356237314705
10
230.33750000000001
20
-130.03125000000006
10
83.987499999999983
20
-130.03125000000006
42
-0.41421356237309503
10
83.487499999999983
20
-129.53125000000003
10
83.487499999999983
20
-116.53125000000004
42
-0.41421356237309503
10
83.987499999999983
20
-116.03125000000006
10
105.53750000000001
20
-116.03125000000006
42
0.41421356237307422
10
106.03750000000004
20
-115.53125000000007
10
106.03750000000004
20
-114.53125000000006
42
-0.41421356237310542
10
106.53750000000001
20
-114.03125000000003
10
112.53749999999999
20
-114.03125000000004
42
-0.41421356237307422
10
113.03750000000001
20
-114.53125000000006
10
113.03750000000001
20
-115.53125000000007
42
0.41421356237309503
10
113.53750000000004
20
-116.03125000000006
10
115.03074999999998
20
-116.03125000000006
42
0.41421356237310542
10
115.53075
20
-115.53125000000007
10
115.53075
20
-114.53125000000006
42
-0.41421356237313667
10
116.03075000000001
20
-114.03125000000004
10
129.17449999999999
20
-114.03125000000004
42
-0.41421356237316787
10
129.67449999999999
20
-114.53125000000006
10
129.67449999999999
20
-115.53125000000007
42
0.41421356237310542
10
130.17449999999997
20
-116.03125000000006
0
CIRCLE
5
133
100
AcDbEntity
8
0
100
AcDbCircle
10
61.912500000000001
20
-52.588512910732575
30
0
40
1.7500000000000002
210
0
220
0
230
1
0
CIRCLE
5
134
100
AcDbEntity
8
0
100
AcDbCircle
10
109.53750100000001
20
-75.40625
30
0
40
2.4999999999999951
210
0
220
0
230
1
0
LINE
5
135
100
AcDbEntity
8
0
100
AcDbLine
10
58.912500000000001
20
-54.588512910732582
30
0
11
58.912500000000001
21
-52.588512910732575
31
0
0
ARC
5
136
100
AcDbEntity
8
0
100
AcDbCircle
10
248.42055353996722
20
-55.113517993621599
30
0
40
0.99999999999999645
210
0
220
0
230
1
100
AcDbArc
50
-90
51
0
0
LINE
5
137
100
AcDbEntity
8
0
100
AcDbLine
10
58.912500000000001
20
-133.98852184827578
30
0
11
58.912500000000001
21
-135.98852184827578
31
0
0
LINE
5
138
100
AcDbEntity
8
0
100
AcDbLine
10
64.912500000000009
20
-135.98852184827578
30
0
11
64.912500000000009
21
-133.98852184827578
31
0
0
ARC
5
139
100
AcDbEntity
8
0
100
AcDbCircle
10
57.912500000000009
20
-55.113517993621599
30
0
40
0.99999999999999645
210
0
220
0
230
1
100
AcDbArc
50
270
51
331.64098091767846
0
ARC
5
140
100
AcDbEntity
8
0
100
AcDbCircle
10
61.912500000000001
20
-52.588512910732575
30
0
40
3.0000000000000071
210
0
220
0
230
1
100
AcDbArc
50
0
51
180
0
ARC
5
141
100
AcDbEntity
8
0
100
AcDbCircle
10
57.912500000000009
20
-133.46351676538677
30
0
40
0.99999999999999645
210
0
220
0
230
1
100
AcDbArc
50
0
51
90
0
ARC
5
142
100
AcDbEntity
8
0
100
AcDbCircle
10
65.912500000000009
20
-55.113517993621599
30
0
40
0.99999999999999645
210
0
220
0
230
1
100
AcDbArc
50
180
51
270
0
ARC
5
143
100
AcDbEntity
8
0
100
AcDbCircle
10
256.42055353996727
20
-133.46351676538677
30
0
40
0.99999999999999645
210
0
220
-0
230
1
100
AcDbArc
50
90
51
180
0
LINE
5
144
100
AcDbEntity
8
0
100
AcDbLine
10
255.42055353996719
20
-54.588512910732582
30
0
11
255.42055353996719
21
-55.113517993621599
31
0
0
ARC
5
145
100
AcDbEntity
8
0
100
AcDbCircle
10
65.912500000000009
20
-133.46351676538677
30
0
40
0.99999999999999645
210
0
220
-0
230
1
100
AcDbArc
50
90
51
180
0
LINE
5
146
100
AcDbEntity
8
0
100
AcDbLine
10
64.912500000000009
20
-52.588512910732575
30
0
11
64.912500000000009
21
-54.588512910732582
31
0
0
LINE
5
147
100
AcDbEntity
8
0
100
AcDbLine
10
55.316376980435102
20
-56.113517993621585
30
0
11
57.912500000000009
21
-56.113517993621599
31
0
0
LINE
5
148
100
AcDbEntity
8
0
100
AcDbLine
10
249.42055353996722
20
-52.588512910732575
30
0
11
249.42055353996722
21
-54.588512910732582
31
0
0
LINE
5
149
100
AcDbEntity
8
0
100
AcDbLine
10
249.42055353996722
20
-54.045104230845375
30
0
11
249.42055353996722
21
-55.113517993621599
31
0
0
ARC
5
150
100
AcDbEntity
8
0
100
AcDbCircle
10
256.42055353996727
20
-55.113517993621599
30
0
40
0.99999999999997868
210
0
220
0
230
1
100
AcDbArc
50
180
51
270
0
LINE
5
151
100
AcDbEntity
8
0
100
AcDbLine
10
58.912500000000001
20
-133.98852184827578
30
0
11
58.912500000000001
21
-133.46351676538677
31
0
0
LINE
5
152
100
AcDbEntity
8
0
100
AcDbLine
10
58.912500000000001
20
-54.588512910732582
30
0
11
58.912500000000001
21
-55.113517993621599
31
0
0
LINE
5
153
100
AcDbEntity
8
0
100
AcDbLine
10
255.42055353996719
20
-133.98852184827578
30
0
11
255.42055353996722
21
-133.46351676538677
31
0
0
ARC
5
154
100
AcDbEntity
8
0
100
AcDbCircle
10
61.912500000000001
20
-135.98852184827578
30
0
40
3.0000000000000071
210
0
220
0
230
1
100
AcDbArc
50
-180
51
0
0
LINE
5
155
100
AcDbEntity
8
0
100
AcDbLine
10
249.42055353996722
20
-135.98852184827578
30
0
11
249.42055353996722
21
-133.98852184827578
31
0
0
LINE
5
156
100
AcDbEntity
8
0
100
AcDbLine
10
64.912500000000009
20
-134.531930528163
30
0
11
64.912500000000023
21
-133.46351676538677
31
0
0
CIRCLE
5
157
100
AcDbEntity
8
0
100
AcDbCircle
10
252.42055353996719
20
-135.98852184827578
30
0
40
1.7500000000000002
210
0
220
0
230
1
0
ARC
5
158
100
AcDbEntity
8
0
100
AcDbCircle
10
248.42055353996722
20
-133.46351676538677
30
0
40
0.99999999999997868
210
0
220
0
230
1
100
AcDbArc
50
0
51
90
0
LINE
5
159
100
AcDbEntity
8
0
100
AcDbLine
10
255.42055353996719
20
-54.588512910732582
30
0
11
255.42055353996719
21
-52.588512910732575
31
0
0
CIRCLE
5
160
100
AcDbEntity
8
0
100
AcDbCircle
10
252.42055353996719
20
-52.588512910732575
30
0
40
1.7500000000000002
210
0
220
0
230
1
0
ARC
5
161
100
AcDbEntity
8
0
100
AcDbCircle
10
252.42055353996719
20
-52.588512910732575
30
0
40
3.0000000000000071
210
0
220
0
230
1
100
AcDbArc
50
0
51
180
0
ARC
5
162
100
AcDbEntity
8
0
100
AcDbCircle
10
252.42055353996719
20
-135.98852184827578
30
0
40
3.0000000000000071
210
0
220
0
230
1
100
AcDbArc
50
-180
51
0
0
CIRCLE
5
163
100
AcDbEntity
8
0
100
AcDbCircle
10
61.912500000000001
20
-135.98852184827578
30
0
40
1.7500000000000002
210
0
220
0
230
1
0
LINE
5
164
100
AcDbEntity
8
0
100
AcDbLine
10
249.42055353996722
20
-134.531930528163
30
0
11
249.42055353996719
21
-133.46351676538677
31
0
0
ARC
5
165
100
AcDbEntity
8
0
100
AcDbCircle
10
57.912500000000009
20
-55.113517993621599
30
0
40
0.99999999999999256
210
0
220
0
230
1
100
AcDbArc
50
-28.359019082321591
51
0
0
LINE
5
166
100
AcDbEntity
8
0
100
AcDbLine
10
255.42055353996719
20
-133.98852184827578
30
0
11
255.42055353996719
21
-135.98852184827578
31
0
0
LINE
5
167
100
AcDbEntity
8
0
100
AcDbLine
10
64.912500000000009
20
-54.045104230845382
30
0
11
64.912500000000023
21
-55.113517993621599
31
0
0
LINE
5
168
100
AcDbEntity
8
0
100
AcDbLine
10
256.42055353996727
20
-56.113517993621578
30
0
11
259.01635500292929
21
-56.113517993621578
31
0
0
LINE
5
169
100
AcDbEntity
8
0
100
AcDbLine
10
55.316490546460329
20
-132.46350594701309
30
0
11
57.912500000000009
21
-132.46351676538677
31
0
0
LINE
5
170
100
AcDbEntity
8
0
100
AcDbLine
10
65.912500000000009
20
-132.46351676538677
30
0
11
248.42055353996722
21
-132.4635167653868
31
0
0
LINE
5
171
100
AcDbEntity
8
0
100
AcDbLine
10
256.42055353996727
20
-132.46351676538677
30
0
11
259.01636750532509
21
-132.46350594742225
31
0
0
LINE
5
172
100
AcDbEntity
8
0
100
AcDbLine
10
52.316503048392313
20
-129.46351132307214
30
0
11
52.316376980439934
21
-59.113523369654587
31
0
0
LINE
5
173
100
AcDbEntity
8
0
100
AcDbLine
10
262.01635500292929
20
-129.46350594744831
30
0
11
262.01635500292929
21
-59.113517993621578
31
0
0
LINE
5
174
100
AcDbEntity
8
0
100
AcDbLine
10
65.912500000000009
20
-56.113517993621599
30
0
11
248.42055353996722
21
-56.113517993621599
31
0
0
ARC
5
175
100
AcDbEntity
8
0
100
AcDbCircle
10
55.316376980435109
20
-59.113517993621585
30
0
40
2.9999999999999982
210
0
220
0
230
1
100
AcDbArc
50
90.000000000000142
51
180.00010267315886
0
ARC
5
176
100
AcDbEntity
8
0
100
AcDbCircle
10
55.316503048387489
20
-129.46350594703912
30
0
40
2.999999999999992
210
0
220
0
230
1
100
AcDbArc
50
180.00010267315886
51
269.99976123077931
0
ARC
5
177
100
AcDbEntity
8
0
100
AcDbCircle
10
259.01635500292929
20
-129.46350594744831
30
0
40
2.9999999999999991
210
-0
220
0
230
1
100
AcDbArc
50
-89.999761221828877
51
0
0
ARC
5
178
100
AcDbEntity
8
0
100
AcDbCircle
10
259.01635500292929
20
-59.113517993621592
30
0
40
3.0000000000000071
210
0
220
-0
230
1
100
AcDbArc
50
0
51
90
0
ENDSEC
0
SECTION
2
OBJECTS
0
DICTIONARY
5
C
100
AcDbDictionary
3
ACAD_GROUP
350
D
3
ACAD_MLINESTYLE
350
17
0
DICTIONARY
5
D
100
AcDbDictionary
0
DICTIONARY
5
1A
330
C
100
AcDbDictionary
0
DICTIONARY
5
17
100
AcDbDictionary
0
ENDSEC
0
EOF
